<svg xmlns="http://www.w3.org/2000/svg" width="512" height="512" viewBox="0 0 512 512">
  <rect width="100%" height="100%" fill="none"/>
  <g fill="none" stroke="currentColor" stroke-width="28" stroke-linecap="round" stroke-linejoin="round">
    <path d="M 90.00 190.00 L 91.38 189.69 L 92.77 189.59 L 94.15 189.57 L 95.53 189.62 L 96.92 189.72 L 98.30 189.86 L 99.68 190.04 L 101.07 190.25 L 102.45 190.50 L 103.83 190.78 L 105.22 191.08 L 106.60 191.41 L 107.98 191.76 L 109.37 192.13 L 110.75 192.51 L 112.13 192.91 L 113.52 193.32 L 114.90 193.73 L 116.28 194.15 L 117.67 194.57 L 119.05 195.00 L 120.43 195.42 L 121.82 195.83 L 123.20 196.23 L 124.58 196.63 L 125.97 197.01 L 127.35 197.37 L 128.73 197.71 L 130.12 198.03 L 131.50 198.33 L 132.88 198.61 L 134.27 198.85 L 135.65 199.07 L 137.03 199.25 L 138.42 199.40 L 139.80 199.52 L 141.18 199.60 L 142.57 199.64 L 143.95 199.65 L 145.33 199.61 L 146.72 199.54 L 148.10 199.42 L 149.48 199.27 L 150.87 199.07 L 152.25 198.83 L 153.63 198.56 L 155.02 198.24 L 156.40 197.88 L 157.78 197.49 L 159.17 197.05 L 160.55 196.59 L 161.93 196.08 L 163.32 195.54 L 164.70 194.97 L 166.08 194.37 L 167.47 193.75 L 168.85 193.09 L 170.23 192.42 L 171.62 191.72 L 173.00 191.00 L 174.38 190.27 L 175.77 189.52 L 177.15 188.77 L 178.53 188.00 L 179.92 187.24 L 181.30 186.47 L 182.68 185.70 L 184.07 184.93 L 185.45 184.18 L 186.83 183.43 L 188.22 182.70 L 189.60 181.98 L 190.98 181.29 L 192.37 180.61 L 193.75 179.97 L 195.13 179.34 L 196.52 178.75 L 197.90 178.20 L 199.28 177.68 L 200.67 177.19 L 202.05 176.75 L 203.43 176.35 L 204.82 175.99 L 206.20 175.68 L 207.58 175.42 L 208.97 175.20 L 210.35 175.04 L 211.73 174.92 L 213.12 174.86 L 214.50 174.85 L 215.88 174.89 L 217.27 174.99 L 218.65 175.13 L 220.03 175.33 L 221.42 175.58 L 222.80 175.89 L 224.18 176.24 L 225.57 176.64 L 226.95 177.09 L 228.33 177.59 L 229.72 178.13 L 231.10 178.72 L 232.48 179.34 L 233.87 180.01 L 235.25 180.71 L 236.63 181.45 L 238.02 182.22 L 239.40 183.02 L 240.78 183.84 L 242.17 184.69 L 243.55 185.56 L 244.93 186.44 L 246.32 187.34 L 247.70 188.25 L 249.08 189.16 L 250.47 190.08 L 251.85 191.00 L 253.23 191.92 L 254.62 192.83 L 256.00 193.74 L 257.38 194.62 L 258.77 195.50 L 260.15 196.35 L 261.53 197.18 L 262.92 197.99 L 264.30 198.77 L 265.68 199.51 L 267.07 200.23 L 268.45 200.90 L 269.83 201.54 L 271.22 202.14 L 272.60 202.69 L 273.98 203.20 L 275.37 203.66 L 276.75 204.08 L 278.13 204.44 L 279.52 204.76 L 280.90 205.02 L 282.28 205.23 L 283.67 205.38 L 285.05 205.48 L 286.43 205.53 L 287.82 205.53 L 289.20 205.47 L 290.58 205.36 L 291.97 205.19 L 293.35 204.98 L 294.73 204.72 L 296.12 204.40 L 297.50 204.04 L 298.88 203.63 L 300.27 203.18 L 301.65 202.69 L 303.03 202.16 L 304.42 201.59 L 305.80 200.98 L 307.18 200.34 L 308.57 199.67 L 309.95 198.97 L 311.33 198.25 L 312.72 197.51 L 314.10 196.75 L 315.48 195.97 L 316.87 195.18 L 318.25 194.39 L 319.63 193.58 L 321.02 192.77 L 322.40 191.96 L 323.78 191.16 L 325.17 190.36 L 326.55 189.57 L 327.93 188.79 L 329.32 188.03 L 330.70 187.28 L 332.08 186.56 L 333.47 185.86 L 334.85 185.18 L 336.23 184.53 L 337.62 183.91 L 339.00 183.33 L 340.38 182.77 L 341.77 182.26 L 343.15 181.77 L 344.53 181.33 L 345.92 180.93 L 347.30 180.57 L 348.68 180.25 L 350.07 179.97 L 351.45 179.73 L 352.83 179.54 L 354.22 179.39 L 355.60 179.28 L 356.98 179.22 L 358.37 179.20 L 359.75 179.21 L 361.13 179.27 L 362.52 179.37 L 363.90 179.51 L 365.28 179.68 L 366.67 179.89 L 368.05 180.13 L 369.43 180.41 L 370.82 180.71 L 372.20 181.04 L 373.58 181.40 L 374.97 181.78 L 376.35 182.18 L 377.73 182.60 L 379.12 183.03 L 380.50 183.48 L 381.88 183.94 L 383.27 184.41 L 384.65 184.88 L 386.03 185.36 L 387.42 185.83 L 388.80 186.30 L 390.18 186.77 L 391.57 187.23 L 392.95 187.68 L 394.33 188.11 L 395.72 188.53 L 397.10 188.93 L 398.48 189.31 L 399.87 189.67 L 401.25 190.00 L 402.63 190.30 L 404.02 190.58 L 405.40 190.82 L 406.78 191.03 L 408.17 191.21 L 409.55 191.35 L 410.93 191.45 L 412.32 191.50 L 413.70 191.52 L 415.08 191.48 L 416.47 191.39 L 417.85 191.24 L 419.23 191.02 L 420.62 190.69 L 422.00 190.00 "/>
    <path d="M 90.00 256.00 L 91.38 255.69 L 92.77 255.59 L 94.15 255.57 L 95.53 255.62 L 96.92 255.72 L 98.30 255.86 L 99.68 256.04 L 101.07 256.25 L 102.45 256.50 L 103.83 256.78 L 105.22 257.08 L 106.60 257.41 L 107.98 257.76 L 109.37 258.13 L 110.75 258.51 L 112.13 258.91 L 113.52 259.32 L 114.90 259.73 L 116.28 260.15 L 117.67 260.57 L 119.05 261.00 L 120.43 261.42 L 121.82 261.83 L 123.20 262.23 L 124.58 262.63 L 125.97 263.01 L 127.35 263.37 L 128.73 263.71 L 130.12 264.03 L 131.50 264.33 L 132.88 264.61 L 134.27 264.85 L 135.65 265.07 L 137.03 265.25 L 138.42 265.40 L 139.80 265.52 L 141.18 265.60 L 142.57 265.64 L 143.95 265.65 L 145.33 265.61 L 146.72 265.54 L 148.10 265.42 L 149.48 265.27 L 150.87 265.07 L 152.25 264.83 L 153.63 264.56 L 155.02 264.24 L 156.40 263.88 L 157.78 263.49 L 159.17 263.05 L 160.55 262.59 L 161.93 262.08 L 163.32 261.54 L 164.70 260.97 L 166.08 260.37 L 167.47 259.75 L 168.85 259.09 L 170.23 258.42 L 171.62 257.72 L 173.00 257.00 L 174.38 256.27 L 175.77 255.52 L 177.15 254.77 L 178.53 254.00 L 179.92 253.24 L 181.30 252.47 L 182.68 251.70 L 184.07 250.93 L 185.45 250.18 L 186.83 249.43 L 188.22 248.70 L 189.60 247.98 L 190.98 247.29 L 192.37 246.61 L 193.75 245.97 L 195.13 245.34 L 196.52 244.75 L 197.90 244.20 L 199.28 243.68 L 200.67 243.19 L 202.05 242.75 L 203.43 242.35 L 204.82 241.99 L 206.20 241.68 L 207.58 241.42 L 208.97 241.20 L 210.35 241.04 L 211.73 240.92 L 213.12 240.86 L 214.50 240.85 L 215.88 240.89 L 217.27 240.99 L 218.65 241.13 L 220.03 241.33 L 221.42 241.58 L 222.80 241.89 L 224.18 242.24 L 225.57 242.64 L 226.95 243.09 L 228.33 243.59 L 229.72 244.13 L 231.10 244.72 L 232.48 245.34 L 233.87 246.01 L 235.25 246.71 L 236.63 247.45 L 238.02 248.22 L 239.40 249.02 L 240.78 249.84 L 242.17 250.69 L 243.55 251.56 L 244.93 252.44 L 246.32 253.34 L 247.70 254.25 L 249.08 255.16 L 250.47 256.08 L 251.85 257.00 L 253.23 257.92 L 254.62 258.83 L 256.00 259.74 L 257.38 260.62 L 258.77 261.50 L 260.15 262.35 L 261.53 263.18 L 262.92 263.99 L 264.30 264.77 L 265.68 265.51 L 267.07 266.23 L 268.45 266.90 L 269.83 267.54 L 271.22 268.14 L 272.60 268.69 L 273.98 269.20 L 275.37 269.66 L 276.75 270.08 L 278.13 270.44 L 279.52 270.76 L 280.90 271.02 L 282.28 271.23 L 283.67 271.38 L 285.05 271.48 L 286.43 271.53 L 287.82 271.53 L 289.20 271.47 L 290.58 271.36 L 291.97 271.19 L 293.35 270.98 L 294.73 270.72 L 296.12 270.40 L 297.50 270.04 L 298.88 269.63 L 300.27 269.18 L 301.65 268.69 L 303.03 268.16 L 304.42 267.59 L 305.80 266.98 L 307.18 266.34 L 308.57 265.67 L 309.95 264.97 L 311.33 264.25 L 312.72 263.51 L 314.10 262.75 L 315.48 261.97 L 316.87 261.18 L 318.25 260.39 L 319.63 259.58 L 321.02 258.77 L 322.40 257.96 L 323.78 257.16 L 325.17 256.36 L 326.55 255.57 L 327.93 254.79 L 329.32 254.03 L 330.70 253.28 L 332.08 252.56 L 333.47 251.86 L 334.85 251.18 L 336.23 250.53 L 337.62 249.91 L 339.00 249.33 L 340.38 248.77 L 341.77 248.26 L 343.15 247.77 L 344.53 247.33 L 345.92 246.93 L 347.30 246.57 L 348.68 246.25 L 350.07 245.97 L 351.45 245.73 L 352.83 245.54 L 354.22 245.39 L 355.60 245.28 L 356.98 245.22 L 358.37 245.20 L 359.75 245.21 L 361.13 245.27 L 362.52 245.37 L 363.90 245.51 L 365.28 245.68 L 366.67 245.89 L 368.05 246.13 L 369.43 246.41 L 370.82 246.71 L 372.20 247.04 L 373.58 247.40 L 374.97 247.78 L 376.35 248.18 L 377.73 248.60 L 379.12 249.03 L 380.50 249.48 L 381.88 249.94 L 383.27 250.41 L 384.65 250.88 L 386.03 251.36 L 387.42 251.83 L 388.80 252.30 L 390.18 252.77 L 391.57 253.23 L 392.95 253.68 L 394.33 254.11 L 395.72 254.53 L 397.10 254.93 L 398.48 255.31 L 399.87 255.67 L 401.25 256.00 L 402.63 256.30 L 404.02 256.58 L 405.40 256.82 L 406.78 257.03 L 408.17 257.21 L 409.55 257.35 L 410.93 257.45 L 412.32 257.50 L 413.70 257.52 L 415.08 257.48 L 416.47 257.39 L 417.85 257.24 L 419.23 257.02 L 420.62 256.69 L 422.00 256.00 "/>
    <path d="M 90.00 322.00 L 91.38 321.69 L 92.77 321.59 L 94.15 321.57 L 95.53 321.62 L 96.92 321.72 L 98.30 321.86 L 99.68 322.04 L 101.07 322.25 L 102.45 322.50 L 103.83 322.78 L 105.22 323.08 L 106.60 323.41 L 107.98 323.76 L 109.37 324.13 L 110.75 324.51 L 112.13 324.91 L 113.52 325.32 L 114.90 325.73 L 116.28 326.15 L 117.67 326.57 L 119.05 327.00 L 120.43 327.42 L 121.82 327.83 L 123.20 328.23 L 124.58 328.63 L 125.97 329.01 L 127.35 329.37 L 128.73 329.71 L 130.12 330.03 L 131.50 330.33 L 132.88 330.61 L 134.27 330.85 L 135.65 331.07 L 137.03 331.25 L 138.42 331.40 L 139.80 331.52 L 141.18 331.60 L 142.57 331.64 L 143.95 331.65 L 145.33 331.61 L 146.72 331.54 L 148.10 331.42 L 149.48 331.27 L 150.87 331.07 L 152.25 330.83 L 153.63 330.56 L 155.02 330.24 L 156.40 329.88 L 157.78 329.49 L 159.17 329.05 L 160.55 328.59 L 161.93 328.08 L 163.32 327.54 L 164.70 326.97 L 166.08 326.37 L 167.47 325.75 L 168.85 325.09 L 170.23 324.42 L 171.62 323.72 L 173.00 323.00 L 174.38 322.27 L 175.77 321.52 L 177.15 320.77 L 178.53 320.00 L 179.92 319.24 L 181.30 318.47 L 182.68 317.70 L 184.07 316.93 L 185.45 316.18 L 186.83 315.43 L 188.22 314.70 L 189.60 313.98 L 190.98 313.29 L 192.37 312.61 L 193.75 311.97 L 195.13 311.34 L 196.52 310.75 L 197.90 310.20 L 199.28 309.68 L 200.67 309.19 L 202.05 308.75 L 203.43 308.35 L 204.82 307.99 L 206.20 307.68 L 207.58 307.42 L 208.97 307.20 L 210.35 307.04 L 211.73 306.92 L 213.12 306.86 L 214.50 306.85 L 215.88 306.89 L 217.27 306.99 L 218.65 307.13 L 220.03 307.33 L 221.42 307.58 L 222.80 307.89 L 224.18 308.24 L 225.57 308.64 L 226.95 309.09 L 228.33 309.59 L 229.72 310.13 L 231.10 310.72 L 232.48 311.34 L 233.87 312.01 L 235.25 312.71 L 236.63 313.45 L 238.02 314.22 L 239.40 315.02 L 240.78 315.84 L 242.17 316.69 L 243.55 317.56 L 244.93 318.44 L 246.32 319.34 L 247.70 320.25 L 249.08 321.16 L 250.47 322.08 L 251.85 323.00 L 253.23 323.92 L 254.62 324.83 L 256.00 325.74 L 257.38 326.62 L 258.77 327.50 L 260.15 328.35 L 261.53 329.18 L 262.92 329.99 L 264.30 330.77 L 265.68 331.51 L 267.07 332.23 L 268.45 332.90 L 269.83 333.54 L 271.22 334.14 L 272.60 334.69 L 273.98 335.20 L 275.37 335.66 L 276.75 336.08 L 278.13 336.44 L 279.52 336.76 L 280.90 337.02 L 282.28 337.23 L 283.67 337.38 L 285.05 337.48 L 286.43 337.53 L 287.82 337.53 L 289.20 337.47 L 290.58 337.36 L 291.97 337.19 L 293.35 336.98 L 294.73 336.72 L 296.12 336.40 L 297.50 336.04 L 298.88 335.63 L 300.27 335.18 L 301.65 334.69 L 303.03 334.16 L 304.42 333.59 L 305.80 332.98 L 307.18 332.34 L 308.57 331.67 L 309.95 330.97 L 311.33 330.25 L 312.72 329.51 L 314.10 328.75 L 315.48 327.97 L 316.87 327.18 L 318.25 326.39 L 319.63 325.58 L 321.02 324.77 L 322.40 323.96 L 323.78 323.16 L 325.17 322.36 L 326.55 321.57 L 327.93 320.79 L 329.32 320.03 L 330.70 319.28 L 332.08 318.56 L 333.47 317.86 L 334.85 317.18 L 336.23 316.53 L 337.62 315.91 L 339.00 315.33 L 340.38 314.77 L 341.77 314.26 L 343.15 313.77 L 344.53 313.33 L 345.92 312.93 L 347.30 312.57 L 348.68 312.25 L 350.07 311.97 L 351.45 311.73 L 352.83 311.54 L 354.22 311.39 L 355.60 311.28 L 356.98 311.22 L 358.37 311.20 L 359.75 311.21 L 361.13 311.27 L 362.52 311.37 L 363.90 311.51 L 365.28 311.68 L 366.67 311.89 L 368.05 312.13 L 369.43 312.41 L 370.82 312.71 L 372.20 313.04 L 373.58 313.40 L 374.97 313.78 L 376.35 314.18 L 377.73 314.60 L 379.12 315.03 L 380.50 315.48 L 381.88 315.94 L 383.27 316.41 L 384.65 316.88 L 386.03 317.36 L 387.42 317.83 L 388.80 318.30 L 390.18 318.77 L 391.57 319.23 L 392.95 319.68 L 394.33 320.11 L 395.72 320.53 L 397.10 320.93 L 398.48 321.31 L 399.87 321.67 L 401.25 322.00 L 402.63 322.30 L 404.02 322.58 L 405.40 322.82 L 406.78 323.03 L 408.17 323.21 L 409.55 323.35 L 410.93 323.45 L 412.32 323.50 L 413.70 323.52 L 415.08 323.48 L 416.47 323.39 L 417.85 323.24 L 419.23 323.02 L 420.62 322.69 L 422.00 322.00 "/>
  </g>
</svg>
